<svg width="25" height="24" viewBox="0 0 25 24" fill="none" xmlns="http://www.w3.org/2000/svg">
<rect width="24.6877" height="24" fill="white" fill-opacity="0.01"/>
<path fill-rule="evenodd" clip-rule="evenodd" d="M8.65516 11.5H18.5158C18.7886 11.5 19.0503 11.6054 19.2432 11.7929C19.4361 11.9804 19.5445 12.2348 19.5445 12.5C19.5445 12.7652 19.4361 13.0196 19.2432 13.2071C19.0503 13.3947 18.7886 13.5 18.5158 13.5H8.65516L12.5568 17.293C12.7442 17.4816 12.8479 17.7342 12.8456 17.9964C12.8432 18.2586 12.735 18.5094 12.5443 18.6948C12.3536 18.8802 12.0956 18.9854 11.8259 18.9877C11.5562 18.99 11.2963 18.8892 11.1023 18.707L5.44473 13.207C5.25189 13.0195 5.14355 12.7652 5.14355 12.5C5.14355 12.2348 5.25189 11.9805 5.44473 11.793L11.1023 6.29301C11.2963 6.11085 11.5562 6.01006 11.8259 6.01234C12.0956 6.01461 12.3536 6.11978 12.5443 6.30519C12.735 6.4906 12.8432 6.74141 12.8456 7.00361C12.8479 7.26581 12.7442 7.51841 12.5568 7.70701L8.65516 11.5Z" fill="#344563"/>
</svg>
