<svg width="46" height="45" viewBox="0 0 46 45" fill="none" xmlns="http://www.w3.org/2000/svg">
<path d="M31.3115 0.896393H13.8242V16.9073H31.3115V0.896393Z" fill="#E6E6E6"/>
<path d="M21.413 0.896393H17.6436V16.9073H21.413V0.896393Z" fill="#F9D9D9"/>
<path d="M6.58887 19.4509V23.8846C6.58887 25.2892 7.72749 26.4278 9.13207 26.4278H36.0046C37.4092 26.4278 38.5478 25.2892 38.5478 23.8846V19.4509C38.5478 18.0463 37.4092 16.9077 36.0046 16.9077H9.13207C7.72749 16.9077 6.58887 18.0463 6.58887 19.4509Z" fill="#F47D7D"/>
<path d="M35.1545 19.7328H9.98047V23.6035H35.1545V19.7328Z" fill="#95DEED"/>
<path d="M35.7809 26.4281H9.35645V44.1036H35.7809V26.4281Z" fill="#F47D7D"/>
<path d="M13.8246 0C13.3296 0 12.9282 0.401397 12.9282 0.896397V16.0112H9.13198C7.23539 16.0112 5.69238 17.5542 5.69238 19.4508V23.8846C5.69238 25.5512 6.88392 26.9444 8.45979 27.2579V44.1036C8.45979 44.5986 8.86119 45 9.35619 45H35.7804C36.2754 45 36.6768 44.5986 36.6768 44.1036V27.258C38.2527 26.9444 39.4442 25.5513 39.4442 23.8847V19.4509C39.4442 17.5543 37.9012 16.0113 36.0046 16.0113H32.2085V0.896397C32.2085 0.401397 31.8071 0 31.3121 0H13.8246ZM30.4158 16.0112H22.3096V1.79279H30.4158V16.0112ZM20.5168 1.79279V16.0112H18.5402V1.79279H20.5168ZM14.721 1.79279H16.7474V16.0112H14.721V1.79279ZM34.8841 43.2072H10.2527V27.3243H34.8841V43.2072ZM9.13207 25.5315C8.22398 25.5315 7.48526 24.7928 7.48526 23.8847V19.4509C7.48526 18.5428 8.22398 17.8041 9.13207 17.8041H36.0048C36.9129 17.8041 37.6516 18.5428 37.6516 19.4509V23.8847C37.6516 24.7928 36.9129 25.5315 36.0048 25.5315H9.13207Z" fill="#4C1D1D"/>
<path d="M35.1558 18.8362H9.98136C9.48636 18.8362 9.08496 19.2376 9.08496 19.7326V23.603C9.08496 24.098 9.48636 24.4994 9.98136 24.4994H35.1557C35.6507 24.4994 36.0521 24.098 36.0521 23.603V19.7326C36.0522 19.2375 35.6508 18.8362 35.1558 18.8362ZM34.2593 22.7066H10.8778V20.629H34.2593V22.7066Z" fill="#4C1D1D"/>
<path d="M12.9276 30.9844H17.0003C17.4953 30.9844 17.8967 30.583 17.8967 30.088C17.8967 29.593 17.4953 29.1916 17.0003 29.1916H12.9276C12.4326 29.1916 12.0312 29.593 12.0312 30.088C12.0312 30.583 12.4326 30.9844 12.9276 30.9844Z" fill="#4C1D1D"/>
<path d="M28.1366 30.9844H32.2093C32.7043 30.9844 33.1057 30.583 33.1057 30.088C33.1057 29.593 32.7043 29.1916 32.2093 29.1916H28.1366C27.6416 29.1916 27.2402 29.593 27.2402 30.088C27.2402 30.583 27.6416 30.9844 28.1366 30.9844Z" fill="#4C1D1D"/>
<path d="M20.5321 30.9844H24.6047C25.0997 30.9844 25.5011 30.583 25.5011 30.088C25.5011 29.593 25.0997 29.1916 24.6047 29.1916H20.5321C20.0371 29.1916 19.6357 29.593 19.6357 30.088C19.6357 30.583 20.0371 30.9844 20.5321 30.9844Z" fill="#4C1D1D"/>
<path d="M12.9276 36.1288H17.0003C17.4953 36.1288 17.8967 35.7275 17.8967 35.2325C17.8967 34.7375 17.4953 34.3361 17.0003 34.3361H12.9276C12.4326 34.3361 12.0312 34.7375 12.0312 35.2325C12.0312 35.7274 12.4326 36.1288 12.9276 36.1288Z" fill="#4C1D1D"/>
<path d="M28.1366 36.1288H32.2093C32.7043 36.1288 33.1057 35.7275 33.1057 35.2325C33.1057 34.7375 32.7043 34.3361 32.2093 34.3361H28.1366C27.6416 34.3361 27.2402 34.7375 27.2402 35.2325C27.2402 35.7274 27.6416 36.1288 28.1366 36.1288Z" fill="#4C1D1D"/>
<path d="M20.5321 36.1288H24.6047C25.0997 36.1288 25.5011 35.7275 25.5011 35.2325C25.5011 34.7375 25.0997 34.3361 24.6047 34.3361H20.5321C20.0371 34.3361 19.6357 34.7375 19.6357 35.2325C19.6357 35.7274 20.0371 36.1288 20.5321 36.1288Z" fill="#4C1D1D"/>
<path d="M12.9276 41.1614H17.0003C17.4953 41.1614 17.8967 40.76 17.8967 40.265C17.8967 39.77 17.4953 39.3686 17.0003 39.3686H12.9276C12.4326 39.3686 12.0312 39.77 12.0312 40.265C12.0312 40.76 12.4326 41.1614 12.9276 41.1614Z" fill="#4C1D1D"/>
<path d="M32.2098 39.3686H32.0312C31.5362 39.3686 31.1348 39.77 31.1348 40.265C31.1348 40.76 31.5362 41.1614 32.0312 41.1614H32.2098C32.7048 41.1614 33.1062 40.76 33.1062 40.265C33.1062 39.77 32.7048 39.3686 32.2098 39.3686Z" fill="#4C1D1D"/>
<path d="M28.1366 41.1614H29.2633C29.7583 41.1614 30.1597 40.76 30.1597 40.265C30.1597 39.77 29.7583 39.3686 29.2633 39.3686H28.1366C27.6416 39.3686 27.2402 39.77 27.2402 40.265C27.2402 40.76 27.6416 41.1614 28.1366 41.1614Z" fill="#4C1D1D"/>
<path d="M20.5321 41.1614H24.6047C25.0997 41.1614 25.5011 40.76 25.5011 40.265C25.5011 39.77 25.0997 39.3686 24.6047 39.3686H20.5321C20.0371 39.3686 19.6357 39.77 19.6357 40.265C19.6357 40.76 20.0371 41.1614 20.5321 41.1614Z" fill="#4C1D1D"/>
</svg>
