<svg width="24" height="24" viewBox="0 0 24 24" fill="none" xmlns="http://www.w3.org/2000/svg">
<path d="M14.356 2.595C14.3771 2.56847 14.4034 2.5465 14.4332 2.53043C14.4631 2.51436 14.4959 2.50453 14.5296 2.50154C14.5634 2.49855 14.5974 2.50245 14.6296 2.51302C14.6618 2.52358 14.6916 2.54059 14.717 2.563L15.638 3.375L12.739 7H14.66L16.766 4.368L18.418 5.825C18.4668 5.86817 18.4969 5.92871 18.5018 5.99372C18.5066 6.05872 18.4859 6.12306 18.444 6.173L17.754 7H19.698C19.9388 6.64748 20.0424 6.21909 19.9894 5.79549C19.9363 5.37188 19.7303 4.98227 19.41 4.7L15.71 1.437C15.5315 1.27981 15.3228 1.16065 15.0968 1.0868C14.8707 1.01295 14.6319 0.985961 14.395 1.00749C14.1581 1.02901 13.9282 1.0986 13.7191 1.21199C13.51 1.32538 13.3262 1.48021 13.179 1.667L8.976 7H10.886L14.356 2.595ZM16.25 14C16.0511 14 15.8603 14.079 15.7197 14.2197C15.579 14.3603 15.5 14.5511 15.5 14.75C15.5 14.9489 15.579 15.1397 15.7197 15.2803C15.8603 15.421 16.0511 15.5 16.25 15.5H18.25C18.4489 15.5 18.6397 15.421 18.7803 15.2803C18.921 15.1397 19 14.9489 19 14.75C19 14.5511 18.921 14.3603 18.7803 14.2197C18.6397 14.079 18.4489 14 18.25 14H16.25ZM4.5 7.25C4.5 7.05109 4.57902 6.86033 4.71967 6.71967C4.86032 6.57902 5.05109 6.5 5.25 6.5H8.378L9.57 5H5.25C4.65326 5 4.08097 5.23706 3.65901 5.65901C3.23705 6.08097 3 6.65327 3 7.25V17.75C3 18.612 3.34241 19.4386 3.9519 20.0481C4.5614 20.6576 5.38805 21 6.25 21H18.25C19.112 21 19.9386 20.6576 20.5481 20.0481C21.1576 19.4386 21.5 18.612 21.5 17.75V11.25C21.5 10.3881 21.1576 9.5614 20.5481 8.95191C19.9386 8.34241 19.112 8 18.25 8H5.25C5.05109 8 4.86032 7.92099 4.71967 7.78033C4.57902 7.63968 4.5 7.44892 4.5 7.25ZM4.5 17.75V9.372C4.735 9.455 4.987 9.5 5.25 9.5H18.25C19.216 9.5 20 10.284 20 11.25V17.75C20 18.2141 19.8156 18.6593 19.4874 18.9874C19.1592 19.3156 18.7141 19.5 18.25 19.5H6.25C5.78587 19.5 5.34075 19.3156 5.01256 18.9874C4.68437 18.6593 4.5 18.2141 4.5 17.75Z" fill="#1E1E1E"/>
</svg>
