<svg width="85" height="85" viewBox="0 0 85 85" fill="none" xmlns="http://www.w3.org/2000/svg">
<g clip-path="url(#clip0_15809_843)">
<path d="M61.8795 29.24C61.1995 28.9 60.1795 28.9 59.4995 29.24L38.4195 51L28.5595 40.8C27.8795 40.12 26.8595 40.12 26.1795 40.8C25.4995 41.48 25.4995 42.5 25.8395 43.18L37.0595 54.4H37.3995C37.3995 54.4 37.7395 54.4 37.7395 54.74H39.0995C39.0995 54.74 39.4395 54.74 39.4395 54.4H39.7795L62.2195 31.62C62.2195 30.94 62.2195 29.92 61.8795 29.24Z" fill="#15971D"/>
<path d="M42.5 85C19.04 85 0 65.96 0 42.5C0 19.04 19.04 0 42.5 0C65.96 0 85 19.04 85 42.5C85 65.96 65.96 85 42.5 85ZM42.5 3.4C21.08 3.4 3.4 21.08 3.4 42.5C3.4 63.92 21.08 81.6 42.5 81.6C63.92 81.6 81.6 63.92 81.6 42.5C81.6 21.08 63.92 3.4 42.5 3.4Z" fill="#15971D"/>
</g>
<defs>
<clipPath id="clip0_15809_843">
<rect width="85" height="85" fill="white"/>
</clipPath>
</defs>
</svg>
