<svg width="51" height="52" viewBox="0 0 51 52" fill="none" xmlns="http://www.w3.org/2000/svg">
<g clip-path="url(#clip0_15774_1440)">
<path d="M32.1836 30.2964H50.1461V11.0637H10.7734V30.2964H32.1836Z" fill="#F9D9D9"/>
<path d="M26.9295 24.067H3.08445C1.85288 24.067 0.854492 25.0654 0.854492 26.2969V38.7112C0.854492 39.9427 1.85288 40.9411 3.08445 40.9411H26.9295C28.1611 40.9411 29.1595 39.9427 29.1595 38.7112V26.2969C29.1596 25.0654 28.1612 24.067 26.9295 24.067Z" fill="#F47D7D"/>
<path d="M29.1592 27.7558H0.854492V31.7475H29.1592V27.7558Z" fill="#666666"/>
<path d="M26.9292 23.2103H3.08411C1.38347 23.2103 0 24.5939 0 26.2945V38.7087C0 40.4094 1.38347 41.7929 3.08411 41.7929H22.4255C22.8972 41.7929 23.2796 41.4105 23.2796 40.9387C23.2796 40.467 22.8972 40.0846 22.4255 40.0846H3.08411C2.32538 40.0846 1.7083 39.4674 1.7083 38.7087V32.5996H28.305V38.7087C28.305 39.4675 27.6878 40.0846 26.9292 40.0846H25.2725C24.8007 40.0846 24.4183 40.467 24.4183 40.9387C24.4183 41.4105 24.8007 41.7929 25.2725 41.7929H26.9292C28.6298 41.7929 30.0133 40.4094 30.0133 38.7087V26.2945C30.0133 24.5939 28.6298 23.2103 26.9292 23.2103ZM1.7083 30.8913V28.6079H6.82354C7.29529 28.6079 7.67769 28.2255 7.67769 27.7537C7.67769 27.282 7.29529 26.8996 6.82354 26.8996H1.7083V26.2945C1.7083 25.5358 2.32548 24.9187 3.08411 24.9187H26.9292C27.6879 24.9187 28.305 25.5359 28.305 26.2945V26.8996H9.67058C9.19883 26.8996 8.81643 27.282 8.81643 27.7537C8.81643 28.2255 9.19883 28.6079 9.67058 28.6079H28.3052V30.8913H1.7083Z" fill="black"/>
<path d="M10.7731 21.894C11.2448 21.894 11.6272 21.5116 11.6272 21.0399V17.1165C14.3174 16.7388 16.4508 14.6055 16.8284 11.9153H36.6609C37.1326 11.9153 37.515 11.5329 37.515 11.0612C37.515 10.5894 37.1326 10.207 36.6609 10.207H10.7731C10.3013 10.207 9.91895 10.5894 9.91895 11.0612V21.0398C9.91895 21.5116 10.3014 21.894 10.7731 21.894ZM15.0972 11.9153C14.7529 13.662 13.3738 15.041 11.6272 15.3853V11.9153H15.0972Z" fill="black"/>
<path d="M50.1458 10.2071H39.508C39.0363 10.2071 38.6539 10.5895 38.6539 11.0613C38.6539 11.533 39.0363 11.9154 39.508 11.9154H44.0918C44.4694 14.6055 46.6022 16.7388 49.2918 17.1166V24.2387C46.6022 24.6164 44.4694 26.7499 44.0918 29.4399H32.1833C31.7115 29.4399 31.3291 29.8223 31.3291 30.2941C31.3291 30.7658 31.7115 31.1482 32.1833 31.1482H50.1458C50.6176 31.1482 51 30.7658 51 30.2941V11.0613C51 10.5895 50.6176 10.2071 50.1458 10.2071ZM45.8228 11.9153H49.2917V15.3852C47.5456 15.0408 46.1671 13.6619 45.8228 11.9153ZM45.8228 29.4398C46.167 27.6933 47.5456 26.3143 49.2917 25.9698V29.4398H45.8228Z" fill="black"/>
<path d="M32.0245 24.9171C31.561 25.0048 31.2563 25.4516 31.3441 25.9151C31.4217 26.325 31.7798 26.6106 32.1824 26.6106C32.235 26.6106 32.2886 26.6057 32.342 26.5956C35.8632 25.9295 38.3225 23.4956 38.3225 20.6769C38.3225 17.317 34.7951 14.5837 30.4595 14.5837C26.1245 14.5837 22.5977 17.3171 22.5977 20.6769C22.5977 20.8197 22.6046 20.9678 22.6182 21.1171C22.6609 21.5869 23.0765 21.9325 23.5462 21.8904C24.016 21.8477 24.3622 21.4321 24.3195 20.9623C24.3105 20.8643 24.3061 20.7682 24.3061 20.6769C24.3061 18.259 27.0665 16.2919 30.4596 16.2919C33.8533 16.2919 36.6144 18.2589 36.6144 20.6769C36.6141 22.6624 34.7268 24.406 32.0245 24.9171Z" fill="black"/>
<path d="M3.87856 34.3387C3.40681 34.3387 3.02441 34.7211 3.02441 35.1929C3.02441 35.6646 3.40681 36.047 3.87856 36.047H9.32182C9.79357 36.047 10.176 35.6646 10.176 35.1929C10.176 34.7211 9.79357 34.3387 9.32182 34.3387H3.87856Z" fill="black"/>
</g>
<defs>
<clipPath id="clip0_15774_1440">
<rect width="51" height="51" fill="white" transform="translate(0 0.5)"/>
</clipPath>
</defs>
</svg>
