<svg width="24" height="18" viewBox="0 0 24 18" fill="none" xmlns="http://www.w3.org/2000/svg">
<g clip-path="url(#clip0_15777_10856)">
<path d="M0 2.25C0 1.00736 0.895431 0 2 0H22C23.1046 0 24 1.00736 24 2.25V15.75C24 16.9926 23.1046 18 22 18H2C0.89543 18 0 16.9926 0 15.75V2.25Z" fill="#FDEACE"/>
<path d="M14.5308 3.67165L9.33887 3.69812L9.468 14.3284L14.6599 14.3019L14.5308 3.67165Z" fill="#FF5F00"/>
<path d="M9.68811 9.02829C9.66177 6.86678 10.5315 4.94507 11.889 3.69756C10.8692 2.8005 9.58909 2.2619 8.19988 2.26898C4.90876 2.28573 2.28298 5.3254 2.32858 9.06576C2.37417 12.8061 5.07373 15.8187 8.36484 15.8019C9.75406 15.7948 11.0209 15.2433 12.0187 14.336C10.6311 13.1212 9.71446 11.1898 9.68811 9.02829Z" fill="#EB001B"/>
<path d="M21.6707 8.9343C21.7163 12.6746 19.0905 15.7143 15.7994 15.7311C14.4101 15.7381 13.13 15.1996 12.1102 14.3025C13.4843 13.0549 14.3375 11.1333 14.3111 8.97176C14.2848 6.81025 13.3683 4.89763 11.9805 3.6641C12.9784 2.75677 14.2452 2.20521 15.6344 2.19814C18.9255 2.18138 21.6253 5.21274 21.6707 8.9343Z" fill="#F79E1B"/>
</g>
<defs>
<clipPath id="clip0_15777_10856">
<rect width="24" height="18" fill="white"/>
</clipPath>
</defs>
</svg>
