<svg width="162" height="29" viewBox="0 0 162 29" fill="none" xmlns="http://www.w3.org/2000/svg">
<path d="M7.54242 0.569435C7.54242 0.569435 8.0358 0.303021 8.888 0.125411C10.7718 -0.274211 12.7453 0.303013 14.2255 1.54628L27.4121 12.5137C27.5915 12.6469 27.8158 12.6469 27.9952 12.5137L39.9708 1.9903C41.1819 0.924646 42.662 0.258618 44.2767 0.125411C45.4429 0.0366062 46.8333 0.214216 48.3134 1.01346C48.3134 1.01346 55.7141 4.47684 55.0862 14.423C55.0862 14.423 55.445 23.5255 46.2053 27.1221C46.2053 27.1221 39.0289 30.5855 29.7444 24.3247C29.565 24.1915 29.565 23.9695 29.6996 23.8363L33.6018 19.6625C33.8709 19.3961 34.2746 19.3516 34.5437 19.5737C35.7098 20.4173 38.5804 22.2822 41.3613 21.6606C41.3613 21.6606 49.4796 21.261 48.4031 11.6256C48.4031 11.6256 48.2686 9.49432 46.609 7.67382C45.8017 6.83017 44.4561 6.78576 43.559 7.5406C40.0605 10.6044 30.9106 18.952 28.1746 21.6606C27.9503 21.8826 27.5467 21.8826 27.3224 21.6606C25.0798 19.5737 15.4365 10.56 11.2203 7.2742C10.5924 6.78577 9.69535 6.78576 9.06741 7.31859C8.08066 8.11784 6.86963 9.76073 6.64537 12.7357C6.64537 12.7357 5.88288 21.3498 14.6291 21.5274C14.6291 21.5274 17.5894 21.6162 20.4151 19.2628C20.6394 19.0852 20.9982 19.0852 21.1776 19.3072L25.618 23.6143C25.7526 23.7919 25.7526 24.0139 25.5732 24.1915C24.2724 25.2572 18.9798 29.1646 12.1174 28.0545C12.1174 28.0545 2.20496 26.5004 0.366007 17.1315C0.321155 17.1315 -2.37 5.09848 7.54242 0.569435Z" fill="#ED1C24"/>
<path d="M111.941 6.08717V23.1255H109.978V6.08717H111.941ZM115.537 23.1255V10.3467H117.501V23.1255H115.537ZM116.536 8.21696C116.153 8.21696 115.823 8.08662 115.546 7.82594C115.274 7.56527 115.138 7.2519 115.138 6.88584C115.138 6.51978 115.274 6.20642 115.546 5.94574C115.823 5.68506 116.153 5.55472 116.536 5.55472C116.918 5.55472 117.246 5.68506 117.517 5.94574C117.795 6.20642 117.933 6.51978 117.933 6.88584C117.933 7.2519 117.795 7.56527 117.517 7.82594C117.246 8.08662 116.918 8.21696 116.536 8.21696ZM123.06 15.4383V23.1255H121.097V10.3467H122.994V12.3434H123.16C123.46 11.6945 123.914 11.1732 124.524 10.7794C125.135 10.38 125.922 10.1804 126.887 10.1804C127.752 10.1804 128.509 10.3578 129.158 10.7128C129.807 11.0622 130.312 11.5947 130.673 12.3101C131.033 13.0201 131.213 13.9186 131.213 15.0057V23.1255H129.25V15.1388C129.25 14.1349 128.989 13.3529 128.468 12.7927C127.947 12.227 127.231 11.9441 126.321 11.9441C125.695 11.9441 125.135 12.08 124.641 12.3517C124.153 12.6235 123.767 13.0201 123.484 13.5414C123.202 14.0628 123.06 14.6951 123.06 15.4383ZM136.631 18.4666L136.598 16.0373H136.997L142.588 10.3467H145.017L139.061 16.3701H138.894L136.631 18.4666ZM134.801 23.1255V6.08717H136.764V23.1255H134.801ZM142.921 23.1255L137.929 16.8027L139.327 15.4383L145.417 23.1255H142.921ZM147.811 23.1255V6.08717H153.568C154.899 6.08717 155.992 6.31457 156.846 6.76937C157.7 7.21862 158.332 7.83704 158.742 8.62461C159.153 9.41219 159.358 10.3079 159.358 11.3118C159.358 12.3157 159.153 13.2059 158.742 13.9824C158.332 14.7589 157.703 15.3689 156.854 15.8127C156.005 16.2508 154.921 16.4699 153.601 16.4699H148.942V14.6063H153.534C154.444 14.6063 155.176 14.4732 155.731 14.207C156.291 13.9408 156.696 13.5636 156.945 13.0755C157.201 12.5819 157.328 11.994 157.328 11.3118C157.328 10.6296 157.201 10.0334 156.945 9.52312C156.69 9.01286 156.283 8.61907 155.723 8.34175C155.162 8.05889 154.422 7.91746 153.501 7.91746H149.874V23.1255H147.811ZM155.831 15.4716L160.024 23.1255H157.628L153.501 15.4716H155.831Z" fill="#ED1C24"/>
<path d="M60.6324 6.08717H63.095L68.8854 20.2303H69.0851L74.8754 6.08717H77.338V23.1255H75.4079V10.1804H75.2415L69.917 23.1255H68.0534L62.729 10.1804H62.5626V23.1255H60.6324V6.08717ZM86.5664 23.3917C85.3351 23.3917 84.273 23.1199 83.38 22.5764C82.4926 22.0273 81.8076 21.2619 81.3251 20.2802C80.8481 19.293 80.6096 18.1449 80.6096 16.836C80.6096 15.527 80.8481 14.3734 81.3251 13.375C81.8076 12.3712 82.4787 11.5891 83.3384 11.0289C84.2036 10.4632 85.2131 10.1804 86.3667 10.1804C87.0323 10.1804 87.6895 10.2913 88.3384 10.5131C88.9874 10.735 89.578 11.0955 90.1105 11.5947C90.6429 12.0883 91.0672 12.7428 91.3834 13.5581C91.6995 14.3734 91.8576 15.3773 91.8576 16.5697V17.4017H82.0073V15.7045H89.8609C89.8609 14.9835 89.7167 14.3401 89.4283 13.7744C89.1454 13.2087 88.7405 12.7622 88.2136 12.4349C87.6923 12.1077 87.0766 11.9441 86.3667 11.9441C85.5847 11.9441 84.908 12.1382 84.3368 12.5265C83.771 12.9092 83.3356 13.4083 83.0306 14.024C82.7256 14.6396 82.573 15.2996 82.573 16.004V17.1355C82.573 18.1005 82.7394 18.9186 83.0722 19.5897C83.4105 20.2553 83.8792 20.7628 84.4782 21.1122C85.0772 21.456 85.7733 21.628 86.5664 21.628C87.0822 21.628 87.5481 21.5559 87.9641 21.4117C88.3856 21.2619 88.7489 21.0401 89.0539 20.7461C89.359 20.4466 89.5947 20.075 89.7611 19.6313L91.6579 20.1637C91.4582 20.8071 91.1227 21.3728 90.6513 21.8609C90.1798 22.3435 89.5975 22.7206 88.9042 22.9924C88.2109 23.2586 87.4316 23.3917 86.5664 23.3917ZM99.6696 23.3917C98.6047 23.3917 97.6646 23.1227 96.8493 22.5847C96.034 22.0412 95.3961 21.2758 94.9358 20.2885C94.4754 19.2957 94.2453 18.1227 94.2453 16.7694C94.2453 15.4272 94.4754 14.2625 94.9358 13.2752C95.3961 12.288 96.0367 11.5253 96.8576 10.9873C97.6785 10.4494 98.6269 10.1804 99.7029 10.1804C100.535 10.1804 101.192 10.319 101.675 10.5963C102.163 10.8681 102.534 11.1787 102.789 11.5281C103.05 11.872 103.253 12.1549 103.397 12.3767H103.563V6.08717H105.527V23.1255H103.63V21.1621H103.397C103.253 21.395 103.047 21.689 102.781 22.044C102.515 22.3934 102.135 22.7067 101.641 22.9841C101.148 23.2558 100.49 23.3917 99.6696 23.3917ZM99.9358 21.628C100.723 21.628 101.389 21.4228 101.932 21.0123C102.476 20.5964 102.889 20.0223 103.172 19.2902C103.455 18.5525 103.596 17.7012 103.596 16.7361C103.596 15.7821 103.458 14.9474 103.18 14.232C102.903 13.5109 102.493 12.9507 101.949 12.5514C101.406 12.1465 100.734 11.9441 99.9358 11.9441C99.1039 11.9441 98.4106 12.1576 97.8559 12.5847C97.3068 13.0062 96.8936 13.5803 96.6163 14.3068C96.3446 15.0278 96.2087 15.8376 96.2087 16.7361C96.2087 17.6457 96.3473 18.4721 96.6246 19.2153C96.9075 19.953 97.3235 20.5409 97.8726 20.9791C98.4272 21.4117 99.115 21.628 99.9358 21.628Z" fill="#ED1C24"/>
</svg>
