<svg width="45" height="44" viewBox="0 0 45 44" fill="none" xmlns="http://www.w3.org/2000/svg">
<rect width="44.6877" height="44" rx="22" fill="white"/>
<rect width="24.6877" height="24" transform="translate(10 10)" fill="white" fill-opacity="0.01"/>
<path fill-rule="evenodd" clip-rule="evenodd" d="M18.6552 21.5H28.5158C28.7886 21.5 29.0503 21.6054 29.2432 21.7929C29.4361 21.9804 29.5445 22.2348 29.5445 22.5C29.5445 22.7652 29.4361 23.0196 29.2432 23.2071C29.0503 23.3947 28.7886 23.5 28.5158 23.5H18.6552L22.5568 27.293C22.7442 27.4816 22.8479 27.7342 22.8456 27.9964C22.8432 28.2586 22.735 28.5094 22.5443 28.6948C22.3536 28.8802 22.0956 28.9854 21.8259 28.9877C21.5562 28.99 21.2963 28.8892 21.1023 28.707L15.4447 23.207C15.2519 23.0195 15.1436 22.7652 15.1436 22.5C15.1436 22.2348 15.2519 21.9805 15.4447 21.793L21.1023 16.293C21.2963 16.1109 21.5562 16.0101 21.8259 16.0123C22.0956 16.0146 22.3536 16.1198 22.5443 16.3052C22.735 16.4906 22.8432 16.7414 22.8456 17.0036C22.8479 17.2658 22.7442 17.5184 22.5568 17.707L18.6552 21.5Z" fill="#344563"/>
</svg>
