<svg width="24" height="24" viewBox="0 0 24 24" fill="none" xmlns="http://www.w3.org/2000/svg">
<rect width="24" height="24" fill="white" fill-opacity="0.01"/>
<path d="M12.0004 10.586L6.70741 5.29301C6.5188 5.11085 6.2662 5.01005 6.00401 5.01233C5.74181 5.01461 5.491 5.11978 5.30559 5.30519C5.12018 5.49059 5.01501 5.74141 5.01273 6.0036C5.01045 6.2658 5.11125 6.5184 5.29341 6.707L10.5864 12L5.29341 17.293C5.11125 17.4816 5.01045 17.7342 5.01273 17.9964C5.01501 18.2586 5.12018 18.5094 5.30559 18.6948C5.491 18.8802 5.74181 18.9854 6.00401 18.9877C6.2662 18.99 6.5188 18.8892 6.70741 18.707L12.0004 13.414L17.2934 18.707C17.482 18.8892 17.7346 18.99 17.9968 18.9877C18.259 18.9854 18.5098 18.8802 18.6952 18.6948C18.8806 18.5094 18.9858 18.2586 18.9881 17.9964C18.9904 17.7342 18.8896 17.4816 18.7074 17.293L13.4144 12L18.7074 6.707C18.8029 6.61476 18.8791 6.50441 18.9315 6.38241C18.9839 6.26041 19.0115 6.12919 19.0127 5.99641C19.0138 5.86363 18.9885 5.73195 18.9382 5.60905C18.8879 5.48615 18.8137 5.3745 18.7198 5.28061C18.6259 5.18672 18.5143 5.11246 18.3914 5.06218C18.2685 5.0119 18.1368 4.9866 18.004 4.98775C17.8712 4.98891 17.74 5.01649 17.618 5.0689C17.496 5.12131 17.3857 5.19749 17.2934 5.29301L12.0004 10.586Z" fill="#42526E"/>
</svg>
